<mxfile host="app.diagrams.net" modified="2024-09-26T21:06:48.359Z" agent="Mozilla/5.0 (Windows NT 10.0; Win64; x64) AppleWebKit/537.36 (KHTML, like Gecko) Chrome/129.0.0.0 Safari/537.36" etag="5NcudaZ4DjvnmTe5N_Jm" version="24.4.3" type="github">
  <diagram name="Página-1" id="Xs3X0Kx3xdC27gv0G3Y0">
    <mxGraphModel dx="1313" dy="653" grid="1" gridSize="10" guides="1" tooltips="1" connect="1" arrows="0" fold="1" page="1" pageScale="1" pageWidth="827" pageHeight="1169" math="0" shadow="0">
      <root>
        <mxCell id="0" />
        <mxCell id="1" parent="0" />
        <mxCell id="vn0W8DQT78yf3hu1SkXJ-3" value="SI" style="edgeStyle=orthogonalEdgeStyle;rounded=0;orthogonalLoop=1;jettySize=auto;html=1;exitX=1;exitY=0.5;exitDx=0;exitDy=0;fontStyle=1" edge="1" parent="1" source="vn0W8DQT78yf3hu1SkXJ-4" target="vn0W8DQT78yf3hu1SkXJ-2">
          <mxGeometry relative="1" as="geometry" />
        </mxCell>
        <mxCell id="vn0W8DQT78yf3hu1SkXJ-5" value="" style="edgeStyle=orthogonalEdgeStyle;rounded=0;orthogonalLoop=1;jettySize=auto;html=1;fontStyle=1" edge="1" parent="1" source="vn0W8DQT78yf3hu1SkXJ-1" target="vn0W8DQT78yf3hu1SkXJ-4">
          <mxGeometry relative="1" as="geometry" />
        </mxCell>
        <mxCell id="vn0W8DQT78yf3hu1SkXJ-1" value="Inicio" style="ellipse;whiteSpace=wrap;html=1;fontStyle=1" vertex="1" parent="1">
          <mxGeometry x="79" y="40" width="96" height="40" as="geometry" />
        </mxCell>
        <mxCell id="vn0W8DQT78yf3hu1SkXJ-7" value="" style="edgeStyle=orthogonalEdgeStyle;rounded=0;orthogonalLoop=1;jettySize=auto;html=1;fontStyle=1" edge="1" parent="1" source="vn0W8DQT78yf3hu1SkXJ-2" target="vn0W8DQT78yf3hu1SkXJ-6">
          <mxGeometry relative="1" as="geometry" />
        </mxCell>
        <mxCell id="vn0W8DQT78yf3hu1SkXJ-2" value="¿se tiene hub de reemplazo?" style="rhombus;whiteSpace=wrap;html=1;fontStyle=1" vertex="1" parent="1">
          <mxGeometry x="236" y="120" width="140" height="80" as="geometry" />
        </mxCell>
        <mxCell id="vn0W8DQT78yf3hu1SkXJ-4" value="se ingresa al camión." style="whiteSpace=wrap;html=1;fontStyle=1" vertex="1" parent="1">
          <mxGeometry x="67" y="130" width="120" height="60" as="geometry" />
        </mxCell>
        <mxCell id="vn0W8DQT78yf3hu1SkXJ-9" value="" style="edgeStyle=orthogonalEdgeStyle;rounded=0;orthogonalLoop=1;jettySize=auto;html=1;fontStyle=1" edge="1" parent="1" source="vn0W8DQT78yf3hu1SkXJ-6" target="vn0W8DQT78yf3hu1SkXJ-8">
          <mxGeometry relative="1" as="geometry" />
        </mxCell>
        <mxCell id="vn0W8DQT78yf3hu1SkXJ-6" value="se reemplaza hub." style="whiteSpace=wrap;html=1;fontStyle=1" vertex="1" parent="1">
          <mxGeometry x="246" y="250" width="120" height="60" as="geometry" />
        </mxCell>
        <mxCell id="vn0W8DQT78yf3hu1SkXJ-11" value="" style="edgeStyle=orthogonalEdgeStyle;rounded=0;orthogonalLoop=1;jettySize=auto;html=1;fontStyle=1" edge="1" parent="1" source="vn0W8DQT78yf3hu1SkXJ-8" target="vn0W8DQT78yf3hu1SkXJ-10">
          <mxGeometry relative="1" as="geometry" />
        </mxCell>
        <mxCell id="vn0W8DQT78yf3hu1SkXJ-8" value="se traslada hub retirado a gabinete." style="whiteSpace=wrap;html=1;fontStyle=1" vertex="1" parent="1">
          <mxGeometry x="246" y="350" width="120" height="60" as="geometry" />
        </mxCell>
        <mxCell id="vn0W8DQT78yf3hu1SkXJ-13" value="SI" style="edgeStyle=orthogonalEdgeStyle;rounded=0;orthogonalLoop=1;jettySize=auto;html=1;fontStyle=1" edge="1" parent="1" source="vn0W8DQT78yf3hu1SkXJ-10" target="vn0W8DQT78yf3hu1SkXJ-12">
          <mxGeometry relative="1" as="geometry" />
        </mxCell>
        <mxCell id="vn0W8DQT78yf3hu1SkXJ-29" value="NO" style="edgeStyle=orthogonalEdgeStyle;rounded=0;orthogonalLoop=1;jettySize=auto;html=1;exitX=1;exitY=0.5;exitDx=0;exitDy=0;entryX=0;entryY=0.5;entryDx=0;entryDy=0;fontStyle=1" edge="1" parent="1" source="vn0W8DQT78yf3hu1SkXJ-10" target="vn0W8DQT78yf3hu1SkXJ-31">
          <mxGeometry relative="1" as="geometry">
            <mxPoint x="457" y="490" as="targetPoint" />
          </mxGeometry>
        </mxCell>
        <mxCell id="vn0W8DQT78yf3hu1SkXJ-10" value="¿hay aislamiento adecuado?" style="rhombus;whiteSpace=wrap;html=1;fontStyle=1" vertex="1" parent="1">
          <mxGeometry x="416" y="340" width="154" height="80" as="geometry" />
        </mxCell>
        <mxCell id="vn0W8DQT78yf3hu1SkXJ-15" value="" style="edgeStyle=orthogonalEdgeStyle;rounded=0;orthogonalLoop=1;jettySize=auto;html=1;fontStyle=1" edge="1" parent="1" source="vn0W8DQT78yf3hu1SkXJ-12" target="vn0W8DQT78yf3hu1SkXJ-14">
          <mxGeometry relative="1" as="geometry" />
        </mxCell>
        <mxCell id="vn0W8DQT78yf3hu1SkXJ-12" value="se flashea el hub" style="whiteSpace=wrap;html=1;fontStyle=1" vertex="1" parent="1">
          <mxGeometry x="433" y="470" width="120" height="60" as="geometry" />
        </mxCell>
        <mxCell id="vn0W8DQT78yf3hu1SkXJ-17" value="" style="edgeStyle=orthogonalEdgeStyle;rounded=0;orthogonalLoop=1;jettySize=auto;html=1;fontStyle=1" edge="1" parent="1" source="vn0W8DQT78yf3hu1SkXJ-14" target="vn0W8DQT78yf3hu1SkXJ-16">
          <mxGeometry relative="1" as="geometry" />
        </mxCell>
        <mxCell id="vn0W8DQT78yf3hu1SkXJ-14" value="se realiza QA/QC" style="whiteSpace=wrap;html=1;fontStyle=1" vertex="1" parent="1">
          <mxGeometry x="433" y="580" width="120" height="60" as="geometry" />
        </mxCell>
        <mxCell id="vn0W8DQT78yf3hu1SkXJ-18" value="SI" style="edgeStyle=orthogonalEdgeStyle;rounded=0;orthogonalLoop=1;jettySize=auto;html=1;entryX=0.5;entryY=1;entryDx=0;entryDy=0;fontStyle=1" edge="1" parent="1" source="vn0W8DQT78yf3hu1SkXJ-16" target="vn0W8DQT78yf3hu1SkXJ-4">
          <mxGeometry relative="1" as="geometry" />
        </mxCell>
        <mxCell id="vn0W8DQT78yf3hu1SkXJ-20" value="NO" style="edgeStyle=orthogonalEdgeStyle;rounded=0;orthogonalLoop=1;jettySize=auto;html=1;fontStyle=1" edge="1" parent="1" source="vn0W8DQT78yf3hu1SkXJ-16" target="vn0W8DQT78yf3hu1SkXJ-19">
          <mxGeometry relative="1" as="geometry" />
        </mxCell>
        <mxCell id="vn0W8DQT78yf3hu1SkXJ-16" value="¿tiene camión asignado?" style="rhombus;whiteSpace=wrap;html=1;fontStyle=1" vertex="1" parent="1">
          <mxGeometry x="438" y="690" width="110" height="80" as="geometry" />
        </mxCell>
        <mxCell id="vn0W8DQT78yf3hu1SkXJ-23" style="edgeStyle=orthogonalEdgeStyle;rounded=0;orthogonalLoop=1;jettySize=auto;html=1;entryX=1;entryY=0.5;entryDx=0;entryDy=0;exitX=1;exitY=0.5;exitDx=0;exitDy=0;fontStyle=1" edge="1" parent="1" source="vn0W8DQT78yf3hu1SkXJ-19" target="vn0W8DQT78yf3hu1SkXJ-16">
          <mxGeometry relative="1" as="geometry">
            <Array as="points">
              <mxPoint x="594" y="850" />
              <mxPoint x="594" y="730" />
            </Array>
          </mxGeometry>
        </mxCell>
        <mxCell id="vn0W8DQT78yf3hu1SkXJ-25" value="" style="edgeStyle=orthogonalEdgeStyle;rounded=0;orthogonalLoop=1;jettySize=auto;html=1;fontStyle=1" edge="1" parent="1" source="vn0W8DQT78yf3hu1SkXJ-19" target="vn0W8DQT78yf3hu1SkXJ-24">
          <mxGeometry relative="1" as="geometry" />
        </mxCell>
        <mxCell id="vn0W8DQT78yf3hu1SkXJ-19" value="Se almacena como hub de respaldo." style="whiteSpace=wrap;html=1;fontStyle=1" vertex="1" parent="1">
          <mxGeometry x="433" y="820" width="120" height="60" as="geometry" />
        </mxCell>
        <mxCell id="vn0W8DQT78yf3hu1SkXJ-24" value="Fin" style="ellipse;whiteSpace=wrap;html=1;fontStyle=1" vertex="1" parent="1">
          <mxGeometry x="453" y="950" width="80" height="40" as="geometry" />
        </mxCell>
        <mxCell id="vn0W8DQT78yf3hu1SkXJ-33" value="SI" style="edgeStyle=orthogonalEdgeStyle;rounded=0;orthogonalLoop=1;jettySize=auto;html=1;exitX=0.5;exitY=0;exitDx=0;exitDy=0;entryX=1;entryY=0.5;entryDx=0;entryDy=0;fontStyle=1" edge="1" parent="1" source="vn0W8DQT78yf3hu1SkXJ-31" target="vn0W8DQT78yf3hu1SkXJ-32">
          <mxGeometry relative="1" as="geometry" />
        </mxCell>
        <mxCell id="vn0W8DQT78yf3hu1SkXJ-36" value="NO" style="edgeStyle=orthogonalEdgeStyle;rounded=0;orthogonalLoop=1;jettySize=auto;html=1;exitX=0.5;exitY=1;exitDx=0;exitDy=0;entryX=0.5;entryY=0;entryDx=0;entryDy=0;fontStyle=1" edge="1" parent="1" source="vn0W8DQT78yf3hu1SkXJ-31" target="vn0W8DQT78yf3hu1SkXJ-35">
          <mxGeometry relative="1" as="geometry">
            <Array as="points">
              <mxPoint x="707" y="460" />
              <mxPoint x="707" y="460" />
            </Array>
          </mxGeometry>
        </mxCell>
        <mxCell id="vn0W8DQT78yf3hu1SkXJ-31" value="¿se puede estandarizar el ambiente?" style="rhombus;whiteSpace=wrap;html=1;fontStyle=1" vertex="1" parent="1">
          <mxGeometry x="630" y="340" width="154" height="80" as="geometry" />
        </mxCell>
        <mxCell id="vn0W8DQT78yf3hu1SkXJ-34" style="edgeStyle=orthogonalEdgeStyle;rounded=0;orthogonalLoop=1;jettySize=auto;html=1;exitX=0.5;exitY=1;exitDx=0;exitDy=0;entryX=0.5;entryY=0;entryDx=0;entryDy=0;fontStyle=1" edge="1" parent="1" source="vn0W8DQT78yf3hu1SkXJ-32" target="vn0W8DQT78yf3hu1SkXJ-10">
          <mxGeometry relative="1" as="geometry" />
        </mxCell>
        <mxCell id="vn0W8DQT78yf3hu1SkXJ-32" value="Se aisla ambiente" style="rounded=0;whiteSpace=wrap;html=1;fontStyle=1" vertex="1" parent="1">
          <mxGeometry x="433" y="250" width="120" height="60" as="geometry" />
        </mxCell>
        <mxCell id="vn0W8DQT78yf3hu1SkXJ-37" style="edgeStyle=orthogonalEdgeStyle;rounded=0;orthogonalLoop=1;jettySize=auto;html=1;exitX=0.5;exitY=1;exitDx=0;exitDy=0;entryX=1;entryY=0.5;entryDx=0;entryDy=0;fontStyle=1" edge="1" parent="1" source="vn0W8DQT78yf3hu1SkXJ-35" target="vn0W8DQT78yf3hu1SkXJ-24">
          <mxGeometry relative="1" as="geometry" />
        </mxCell>
        <mxCell id="vn0W8DQT78yf3hu1SkXJ-35" value="No se realiza el trabajo de flasheo" style="rounded=0;whiteSpace=wrap;html=1;fontStyle=1" vertex="1" parent="1">
          <mxGeometry x="647" y="580" width="120" height="60" as="geometry" />
        </mxCell>
      </root>
    </mxGraphModel>
  </diagram>
</mxfile>
